<?xml version="1.0" encoding="UTF-8" standalone="no"?><!DOCTYPE svg PUBLIC "-//W3C//DTD SVG 1.1//EN" "http://www.w3.org/Graphics/SVG/1.1/DTD/svg11.dtd"><svg width="100%" height="100%" viewBox="0 0 119 70" version="1.1" xmlns="http://www.w3.org/2000/svg" xmlns:xlink="http://www.w3.org/1999/xlink" xml:space="preserve" style="fill-rule:evenodd;clip-rule:evenodd;stroke-linejoin:round;stroke-miterlimit:1.41421;"><g><path d="M39.475,62.789c0.022,0.26 0.024,0.5 0.027,0.76c0.032,3.641 -1.513,5.435 -4.853,5.465c-1.961,0.017 -3.347,-0.612 -4.219,-1.924c-0.75,-1.133 -0.867,-3.072 -0.892,-5.912c-0.024,-2.842 0.058,-4.784 0.788,-5.929c0.829,-1.308 2.204,-1.981 4.124,-1.997c3.301,-0.029 4.957,1.797 4.989,5.437c0.001,0.061 0.001,0.1 0.001,0.141l-3.421,0.029c-0.037,-1.94 -0.384,-2.777 -1.484,-2.767c-1.46,0.013 -1.468,1.453 -1.438,4.773c0.001,0.102 0.001,0.18 0.002,0.281c0.031,3.52 0.044,5.059 1.525,5.046c1.16,-0.01 1.413,-0.831 1.396,-2.712c-0.002,-0.201 -0.003,-0.42 -0.006,-0.66l3.461,-0.031Z" style="fill:#f7f7f2;fill-rule:nonzero;"/><path d="M46.636,62.946l-1.058,-6.552l-0.963,6.57l2.021,-0.018Zm-3.163,-9.413l4.181,-0.037l3.372,15.013l-3.52,0.032l-0.466,-2.877l-2.76,0.023l-0.415,2.885l-3.541,0.031l3.149,-15.07Z" style="fill:#f7f7f2;fill-rule:nonzero;"/><path d="M55.781,65.807c1.48,-0.013 2.215,-0.72 2.203,-2.08c-0.012,-1.28 -0.737,-1.833 -2.297,-1.819c-0.08,0 -0.16,0.001 -0.24,0.002l0.034,3.9c0.1,-0.002 0.2,-0.002 0.3,-0.003m-0.137,-6.501c1.36,-0.012 2.016,-0.557 2.005,-1.797c-0.009,-1.041 -0.675,-1.635 -1.895,-1.625c-0.12,0.002 -0.24,0.002 -0.36,0.024l0.03,3.4c0.08,0 0.14,0 0.22,-0.002m-3.792,-5.848l3.781,-0.033c1.58,-0.014 2.78,-0.004 3.765,0.567c1.087,0.63 1.656,1.707 1.669,3.166c0.011,1.3 -0.461,2.265 -1.593,3.236c1.347,0.668 2.037,1.821 2.052,3.462c0.012,1.38 -0.477,2.624 -1.27,3.452c-0.952,1.008 -2.231,1.14 -4.091,1.156l-4.181,0.037l-0.132,-15.043Z" style="fill:#f7f7f2;fill-rule:nonzero;"/><path d="M77.673,62.454c0.022,0.259 0.024,0.499 0.027,0.759c0.032,3.642 -1.513,5.435 -4.853,5.465c-1.961,0.017 -3.347,-0.612 -4.219,-1.924c-0.75,-1.133 -0.867,-3.072 -0.892,-5.912c-0.024,-2.841 0.058,-4.783 0.788,-5.928c0.829,-1.309 2.204,-1.981 4.124,-1.998c3.301,-0.029 4.958,1.798 4.989,5.438c0.001,0.06 0.001,0.1 0.002,0.14l-3.421,0.029c-0.037,-1.939 -0.385,-2.776 -1.485,-2.767c-1.46,0.013 -1.468,1.454 -1.438,4.774c0.001,0.101 0.001,0.18 0.002,0.28c0.031,3.52 0.044,5.06 1.525,5.047c1.16,-0.009 1.413,-0.832 1.396,-2.713c-0.002,-0.2 -0.004,-0.419 -0.006,-0.66l3.461,-0.03Z" style="fill:#f7f7f2;fill-rule:nonzero;"/><path d="M85.705,59.324c-0.021,-2.441 -0.032,-3.682 -1.492,-3.668c-1.421,0.012 -1.43,1.252 -1.408,3.693l0.023,2.719c0.022,2.461 0.072,3.681 1.493,3.668c1.42,-0.012 1.429,-1.232 1.407,-3.693l-0.023,-2.719Zm-5.682,-4.512c0.849,-1.328 2.224,-1.98 4.185,-1.998c1.96,-0.017 3.326,0.612 4.197,1.924c0.771,1.154 0.888,3.094 0.912,5.914c0.026,2.819 -0.057,4.761 -0.807,5.928c-0.849,1.328 -2.224,1.98 -4.164,1.998c-1.96,0.017 -3.346,-0.611 -4.218,-1.925c-0.751,-1.134 -0.867,-3.073 -0.893,-5.913c-0.024,-2.84 0.058,-4.781 0.788,-5.928" style="fill:#f7f7f2;fill-rule:nonzero;"/><path d="M90.347,64.723l3.461,-0.03l0.03,3.44l-3.461,0.03l-0.03,-3.44Z" style="fill:#f7f7f2;fill-rule:nonzero;"/><path d="M0,11.874l13.805,-5.071l1.809,4.928l-7.897,2.901l1.71,4.658l7.291,-2.678l1.872,5.096l-7.291,2.679l2.034,5.535l7.897,-2.901l1.897,5.163l-13.805,5.071l-9.322,-25.381Z" style="fill:#f7f7f2;fill-rule:nonzero;"/><path d="M19.582,4.844l8.695,-1.618l4.474,10.868c0.15,0.411 0.785,2.451 2.006,6.063c-0.132,-3.851 -0.244,-6.025 -0.224,-6.504l0.247,-11.638l8.624,-1.607l4.949,26.58l-5.866,1.092l-3.295,-20.634l-0.381,21.318l-4.737,0.882l-8.03,-19.752l4.354,20.436l-5.866,1.093l-4.95,-26.579Z" style="fill:#f7f7f2;fill-rule:nonzero;"/><path d="M57.444,11.679c2.552,-0.034 3.579,-1.163 3.544,-3.787c-0.029,-2.229 -1.228,-3.04 -3.923,-3.004c-0.18,0.003 -0.359,0.006 -0.539,0.008l0.091,6.758c0.288,0.032 0.576,0.028 0.827,0.025m-7.346,-11.586l6.219,-0.083c3.378,-0.046 5.932,0.027 7.853,1.188c1.994,1.195 3.105,3.626 3.15,6.968c0.073,5.465 -2.799,8.416 -8.407,8.491l-2.228,0.03l0.139,10.353l-6.363,0.087l-0.363,-27.034Z" style="fill:#f7f7f2;fill-rule:nonzero;"/><path d="M70.924,0.284l6.313,0.437l-1.864,26.972l-6.311,-0.437l1.862,-26.972Z" style="fill:#f7f7f2;fill-rule:nonzero;"/><path d="M87.167,13.171c2.563,0.371 3.692,-0.409 4.055,-2.9c0.336,-2.312 -0.537,-3.312 -3.099,-3.684c-0.249,-0.036 -0.504,-0.037 -0.788,-0.078l-0.945,6.513c0.284,0.041 0.528,0.112 0.777,0.149m-5.353,-12.186l7.046,1.022c3.559,0.517 5.922,1.006 7.337,2.519c1.38,1.508 1.828,3.426 1.467,5.917c-0.444,3.061 -1.771,4.939 -4.244,5.961c2.731,1.705 2.509,3.489 2.161,6.637c-0.394,3.466 -0.979,5.741 0.497,7.337l-7.33,-1.064c-0.155,-1.186 -0.122,-2.414 0.074,-3.766c0.171,-1.176 0.371,-2.055 0.469,-2.731c0.449,-3.096 0.016,-4.357 -2.333,-4.698l-1.281,-0.186l-1.555,10.71l-6.191,-0.898l3.883,-26.76Z" style="fill:#f7f7f2;fill-rule:nonzero;"/><path d="M104.215,4.653l14.104,4.152l-1.482,5.035l-8.069,-2.376l-1.402,4.76l7.45,2.191l-1.533,5.207l-7.448,-2.191l-1.665,5.654l8.069,2.375l-1.552,5.276l-14.105,-4.151l7.633,-25.932Z" style="fill:#f7f7f2;fill-rule:nonzero;"/><path d="M76.332,40.158c0.044,4.977 -7.281,9.076 -16.361,9.156c-9.08,0.08 -16.475,-3.89 -16.519,-8.868c-0.044,-4.976 7.281,-9.076 16.361,-9.155c9.08,-0.08 16.476,3.89 16.519,8.867" style="fill:#f7f7f2;fill-rule:nonzero;"/></g></svg>